<?xml version="1.0" standalone="no"?>
<!DOCTYPE svg PUBLIC "-//W3C//DTD SVG 20010904//EN"
 "http://www.w3.org/TR/2001/REC-SVG-20010904/DTD/svg10.dtd">
<svg version="1.0" xmlns="http://www.w3.org/2000/svg"
 width="190.292642pt" height="148.112757pt" viewBox="0 0 190.292642 148.112757"
 preserveAspectRatio="xMidYMid meet">
<metadata>
Created by Potrace Professional 1.1m
</metadata>
<g transform="translate(-30.976092,202.669125) rotate(-360.00) scale(0.095238,-0.095238)"
fill="#3c454f" stroke="none">
<path d="M962 2116 c-184 -23 -500 -93 -555 -122 -17 -9 -19 -34 -19 -293 l0
-282 45 20 c25 11 53 20 63 20 14 0 19 10 19 40 0 49 40 135 80 173 58 55 89
61 324 61 192 0 220 -3 255 -21 80 -41 139 -128 139 -205 0 -20 4 -37 10 -37
6 0 11 17 11 37 0 77 58 164 138 205 35 18 63 21 255 21 234 0 255 -4 319 -59
44 -37 85 -122 85 -175 0 -30 5 -40 19 -40 10 0 38 -9 63 -20 l45 -21 -3 286
-3 286 -57 19 c-80 27 -299 76 -431 97 -151 24 -643 30 -802 10z"/>
<path d="M698 1639 c-50 -21 -99 -98 -99 -156 0 -10 70 -13 316 -13 l316 0 -5
42 c-7 53 -44 103 -88 122 -39 16 -402 20 -440 5z"/>
<path d="M1501 1629 c-39 -20 -83 -92 -83 -135 l0 -24 316 0 316 0 -8 39 c-10
58 -37 97 -81 119 -34 18 -62 21 -231 21 -166 0 -197 -3 -229 -20z"/>
<path d="M501 1371 c-101 -27 -176 -133 -175 -249 l0 -51 998 0 999 0 -5 73
c-9 122 -77 205 -189 231 -72 17 -1565 13 -1628 -4z"/>
<path d="M326 787 c0 -235 -14 -217 154 -212 l108 4 11 44 c6 24 18 69 27 99
l15 55 684 -3 684 -2 24 -93 c13 -51 25 -95 28 -98 10 -9 222 -10 241 -1 17 8
19 29 19 208 l0 199 -998 0 -997 0 0 -200z"/>
</g>
</svg>
