<svg height="512" viewBox="0 0 60 60" width="512" xmlns="http://www.w3.org/2000/svg"><g id="Page-1" fill="none" fill-rule="evenodd"><g id="002---Suitcase" fill-rule="nonzero"><g id="Icons_copy" transform="translate(1 1)"><path id="Shape" d="m16 53-.68 3.39c-.1859544.9353078-1.0063863 1.609234-1.96 1.61h-5.72c-.95361372-.000766-1.77404557-.6746922-1.96-1.61l-.68-3.39z" fill="#a0522d"/><path id="Shape" d="m13 53-.68 3.39c-.1859544.9353078-1.0063863 1.609234-1.96 1.61h3c.9536137-.000766 1.7740456-.6746922 1.96-1.61l.68-3.39z" fill="#783e22"/><path id="Shape" d="m53 53-.68 3.39c-.1859544.9353078-1.0063863 1.609234-1.96 1.61h-5.72c-.9536137-.000766-1.7740456-.6746922-1.96-1.61l-.68-3.39z" fill="#a0522d"/><path id="Shape" d="m50 53-.68 3.39c-.1859544.9353078-1.0063863 1.609234-1.96 1.61h3c.9536137-.000766 1.7740456-.6746922 1.96-1.61l.68-3.39z" fill="#783e22"/><path id="Shape" d="m44.6 14h-10.2l1.35-3.37c.1516273-.380721.5201962-.63039671.93-.63h5.64c.4098038-.00039671.7783727.249279.93.63z" fill="#ffdc00"/><path id="Shape" d="m43.25 10.63c-.1516273-.380721-.5201962-.63039671-.93-.63l-3-.00000047c.4098038-.00039624.7783727.24927947.93.63000047l1.35 3.37h3z" fill="#fec108"/><path id="Shape" d="m42 8v2h-5v-2c0-1.65685425-1.3431458-3-3-3h-10c-1.6568542 0-3 1.34314575-3 3v2h-5v-2c0-4.418278 3.581722-8 8-8h10c4.418278 0 8 3.581722 8 8z" fill="#ff5722"/><path id="Shape" d="m34 0h-3c4.418278 0 8 3.581722 8 8v2h3v-2c0-4.418278-3.581722-8-8-8z" fill="#d84315"/><path id="Shape" d="m23.6 14h-10.2l1.35-3.37c.1516273-.380721.5201962-.63039671.93-.63h5.64c.4098038-.00039671.7783727.249279.93.63z" fill="#ffdc00"/><rect id="Rectangle-path" fill="#ff9801" height="39" rx="3" width="58" y="14"/><path id="Shape" d="m55 14h-3c1.6568542 0 3 1.3431458 3 3v33c0 1.6568542-1.3431458 3-3 3h3c1.6568542 0 3-1.3431458 3-3v-33c0-1.6568542-1.3431458-3-3-3z" fill="#f57c00"/><path id="Shape" d="m7 28v25h6v-39h-6v7z" fill="#ff5722"/><path id="Rectangle-path" d="m10 14h3v39h-3z" fill="#d84315"/><path id="Shape" d="m51 39v-25h-6v39h6v-7z" fill="#ff5722"/><path id="Shape" d="m48 14v25 7 7h3v-7-7-25z" fill="#d84315"/><rect id="Rectangle-path" fill="#ffdc00" height="8.748" rx="2" transform="matrix(.981 .193 -.193 .981 5.392 -5.863)" width="14.997" x="25.287" y="20.364"/><circle id="Oval" cx="34.5" cy="42.5" fill="#f44335" r="5.5"/><path id="Shape" d="m22 38h3.807c.4188649.0211535.8147215-.1924463 1.0269976-.5541563.212276-.36171.2057243-.8114704-.0169976-1.1668437l-3.807-5.75c-.2296136-.3311845-.6070043-.5287565-1.01-.5287565s-.7803864.197572-1.01.5287565l-3.807 5.75c-.2227219.3553733-.2292736.8051337-.0169976 1.1668437.2122761.36171.6081327.5753098 1.0269976.5541563z" fill="#00bcd4"/></g><g id="Layer_12" fill="#000"><path id="Shape" d="m4 55h1.18l.52 2.588c.28265984 1.4002799 1.51148067 2.4084145 2.94 2.412h5.72c1.4285193-.0035855 2.6573402-1.0117201 2.94-2.412l.52-2.588h24.36l.518 2.588c.2828103 1.4010146 1.5127286 2.4093637 2.942 2.412h5.72c1.4285193-.0035855 2.6573402-1.0117201 2.94-2.412l.52-2.588h1.18c2.209139 0 4-1.790861 4-4v-33c0-2.209139-1.790861-4-4-4h-9.723l-1.1-2.737c-.2100726-.5302949-.6392574-.9438-1.177-1.134v-1.129c-.006061-4.96805005-4.0319499-8.99393904-9-9h-10c-4.9680501.00606096-8.993939 4.03194995-9 9v1.129c-.5373159.188503-.9668524.6001726-1.178 1.129l-1.099 2.742h-9.723c-2.209139 0-4 1.790861-4 4v33c0 2.209139 1.790861 4 4 4zm11.341 2.2c-.0951286.4660347-.5053558.8005727-.981.8h-5.72c-.47564422.0005727-.88587143-.3339653-.981-.8l-.439-2.2h8.56zm6.981-45.2.8 2h-7.244l.8-2zm21 0 .8 2h-7.244l.8-2zm-6.322-1.871c-.5373159.188503-.9668524.6001726-1.178 1.129l-1.099 2.742h-9.446l-1.1-2.737c-.2100726-.5302949-.6392574-.9438-1.177-1.134v-1.129c0-1.1045695.8954305-2 2-2h10c1.1045695 0 2 .8954305 2 2zm8 5.871v37h-30v-37zm7.341 41.2c-.0951286.4660347-.5053558.8005727-.981.8h-5.72c-.4756442.0005727-.8858714-.3339653-.981-.8l-.439-2.2h8.56zm-1.341-41.2v24c0 .5522847.4477153 1 1 1s1-.4477153 1-1v-24h3c1.1045695 0 2 .8954305 2 2v33c0 1.1045695-.8954305 2-2 2h-3v-6c0-.5522847-.4477153-1-1-1s-1 .4477153-1 1v6h-4v-37zm-26-14h10c3.8641657.00440864 6.9955914 3.13583434 7 7v1h-3v-1c0-2.209139-1.790861-4-4-4h-10c-2.209139 0-4 1.790861-4 4v1h-3v-1c.0044086-3.86416566 3.1358343-6.99559136 7-7zm-23 16c0-1.1045695.8954305-2 2-2h3v6c0 .5522847.44771525 1 1 1s1-.4477153 1-1v-6h4v37h-4v-24c0-.5522847-.44771525-1-1-1s-1 .4477153-1 1v24h-3c-1.1045695 0-2-.8954305-2-2z"/><path id="Shape" d="m27.364 29.953 10.793 2.121c.7808087.1536697 1.5906816-.0091851 2.251399-.4527265.6607174-.4435415 1.1181375-1.1314243 1.271601-1.9122735l.916-4.661c.1533512-.7808032-.0097797-1.5905448-.4535-2.2510616-.4437203-.6605169-1.131676-1.117693-1.9125-1.2709384l-10.793-2.126c-.7808032-.1533512-1.5905448.0097797-2.2510616.4535-.6605169.4437203-1.117693 1.131676-1.2709384 1.9125l-.915 4.664c-.1536697.7808087.0091851 1.5906816.4527265 2.251399.4435415.6607174 1.1314243 1.1181375 1.9122735 1.271601zm.513-7.8c.0506657-.2604066.2033247-.4897552.424-.637.219171-.1499758.4898673-.204476.75-.151l10.794 2.122c.5417268.106688.8944767.6322316.788 1.174l-.916 4.66c-.106688.5417268-.6322316.8944767-1.174.788l-10.793-2.118c-.2605456-.0509942-.4901193-.2035026-.6381212-.423911s-.2022828-.4906239-.1508788-.751089z"/><path id="Shape" d="m35.5 37c-3.5898509 0-6.5 2.9101491-6.5 6.5s2.9101491 6.5 6.5 6.5 6.5-2.9101491 6.5-6.5c-.0044079-3.5880235-2.9119765-6.4955921-6.5-6.5zm0 11c-2.4852814 0-4.5-2.0147186-4.5-4.5s2.0147186-4.5 4.5-4.5 4.5 2.0147186 4.5 4.5c-.0027556 2.4841391-2.0158609 4.4972444-4.5 4.5z"/><path id="Shape" d="m19.193 40h7.614c.8094176.0064678 1.5566441-.4332581 1.944-1.144.3677093-.6721112.329118-1.4933337-.1-2.128l-3.807-5.751c-.4148988-.6109639-1.1054759-.97676-1.844-.97676s-1.4291012.3657961-1.844.97676l-3.806 5.75c-.4295212.6349016-.4681183 1.456633-.1 2.129.3871863.7104238 1.13394 1.1500977 1.943 1.144zm3.631-7.919c.0440745-.0513187.1083526-.0808445.176-.0808445s.1319255.0295258.176.0808445l3.813 5.829c-.0385449.0622469-.1091358.0971545-.182.09h-7.614c-.12 0-.167-.063-.176-.169z"/></g></g></g></svg>